<svg width="50" height="50" viewBox="0 0 50 50" fill="none" xmlns="http://www.w3.org/2000/svg">
<g clip-path="url(#clip0_2796_891)">
<path d="M25 31.25C28.4518 31.25 31.25 28.4518 31.25 25C31.25 21.5482 28.4518 18.75 25 18.75C21.5482 18.75 18.75 21.5482 18.75 25C18.75 28.4518 21.5482 31.25 25 31.25Z" stroke="black" stroke-width="2.6" stroke-linecap="round" stroke-linejoin="round"/>
<path d="M40.4168 31.25C40.1395 31.8784 40.0568 32.5754 40.1793 33.2513C40.3019 33.9271 40.624 34.5507 41.1043 35.0417L41.2293 35.1667C41.6167 35.5537 41.9241 36.0132 42.1337 36.519C42.3434 37.0249 42.4514 37.5671 42.4514 38.1146C42.4514 38.6622 42.3434 39.2044 42.1337 39.7102C41.9241 40.216 41.6167 40.6756 41.2293 41.0625C40.8424 41.4499 40.3828 41.7573 39.877 41.967C39.3712 42.1766 38.829 42.2846 38.2814 42.2846C37.7338 42.2846 37.1917 42.1766 36.6858 41.967C36.18 41.7573 35.7205 41.4499 35.3335 41.0625L35.2085 40.9375C34.7175 40.4573 34.0939 40.1351 33.4181 40.0125C32.7422 39.89 32.0452 39.9727 31.4168 40.25C30.8006 40.5141 30.2751 40.9526 29.905 41.5116C29.5348 42.0705 29.3362 42.7255 29.3335 43.3959V43.75C29.3335 44.8551 28.8945 45.9149 28.1131 46.6963C27.3317 47.4777 26.2719 47.9167 25.1668 47.9167C24.0618 47.9167 23.002 47.4777 22.2206 46.6963C21.4391 45.9149 21.0002 44.8551 21.0002 43.75V43.5625C20.984 42.873 20.7608 42.2042 20.3596 41.6432C19.9583 41.0821 19.3975 40.6548 18.7502 40.4167C18.1218 40.1394 17.4248 40.0567 16.7489 40.1792C16.0731 40.3017 15.4495 40.6239 14.9585 41.1042L14.8335 41.2292C14.4465 41.6166 13.987 41.9239 13.4812 42.1336C12.9753 42.3433 12.4331 42.4512 11.8856 42.4512C11.338 42.4512 10.7958 42.3433 10.29 42.1336C9.78417 41.9239 9.32463 41.6166 8.93766 41.2292C8.55026 40.8422 8.24293 40.3827 8.03325 39.8769C7.82356 39.371 7.71563 38.8289 7.71563 38.2813C7.71563 37.7337 7.82356 37.1915 8.03325 36.6857C8.24293 36.1799 8.55026 35.7203 8.93766 35.3334L9.06266 35.2084C9.54295 34.7174 9.86513 34.0938 9.98767 33.4179C10.1102 32.7421 10.0275 32.0451 9.75016 31.4167C9.48607 30.8005 9.04757 30.275 8.48863 29.9048C7.92969 29.5347 7.27472 29.336 6.60433 29.3334H6.25016C5.14509 29.3334 4.08529 28.8944 3.30388 28.113C2.52248 27.3316 2.0835 26.2718 2.0835 25.1667C2.0835 24.0616 2.52248 23.0018 3.30388 22.2204C4.08529 21.439 5.14509 21 6.25016 21H6.43766C7.12723 20.9839 7.79601 20.7607 8.35704 20.3594C8.91807 19.9582 9.3454 19.3974 9.5835 18.75C9.86082 18.1217 9.94354 17.4246 9.82101 16.7488C9.69847 16.073 9.37628 15.4494 8.896 14.9584L8.771 14.8334C8.38359 14.4464 8.07626 13.9869 7.86658 13.481C7.6569 12.9752 7.54897 12.433 7.54897 11.8855C7.54897 11.3379 7.6569 10.7957 7.86658 10.2899C8.07626 9.78405 8.38359 9.32451 8.771 8.93754C9.15797 8.55014 9.6175 8.24281 10.1233 8.03312C10.6292 7.82344 11.1713 7.71551 11.7189 7.71551C12.2665 7.71551 12.8087 7.82344 13.3145 8.03312C13.8203 8.24281 14.2799 8.55014 14.6668 8.93754L14.7918 9.06254C15.2828 9.54283 15.9064 9.86501 16.5823 9.98755C17.2581 10.1101 17.9551 10.0274 18.5835 9.75004H18.7502C19.3663 9.48595 19.8919 9.04745 20.262 8.48851C20.6322 7.92957 20.8308 7.2746 20.8335 6.60421V6.25004C20.8335 5.14497 21.2725 4.08516 22.0539 3.30376C22.8353 2.52236 23.8951 2.08337 25.0002 2.08337C26.1052 2.08337 27.165 2.52236 27.9464 3.30376C28.7278 4.08516 29.1668 5.14497 29.1668 6.25004V6.43754C29.1695 7.10793 29.3681 7.76291 29.7383 8.32184C30.1085 8.88078 30.634 9.31928 31.2502 9.58337C31.8785 9.8607 32.5756 9.94342 33.2514 9.82088C33.9272 9.69834 34.5508 9.37616 35.0418 8.89587L35.1668 8.77087C35.5538 8.38347 36.0133 8.07614 36.5192 7.86646C37.025 7.65677 37.5672 7.54885 38.1147 7.54885C38.6623 7.54885 39.2045 7.65677 39.7103 7.86646C40.2162 8.07614 40.6757 8.38347 41.0627 8.77087C41.4501 9.15784 41.7574 9.61738 41.9671 10.1232C42.1768 10.629 42.2847 11.1712 42.2847 11.7188C42.2847 12.2664 42.1768 12.8085 41.9671 13.3144C41.7574 13.8202 41.4501 14.2797 41.0627 14.6667L40.9377 14.7917C40.4574 15.2827 40.1352 15.9063 40.0127 16.5821C39.8901 17.258 39.9728 17.955 40.2502 18.5834V18.75C40.5142 19.3662 40.9528 19.8917 41.5117 20.2619C42.0706 20.6321 42.7256 20.8307 43.396 20.8334H43.7502C44.8552 20.8334 45.915 21.2724 46.6964 22.0538C47.4778 22.8352 47.9168 23.895 47.9168 25C47.9168 26.1051 47.4778 27.1649 46.6964 27.9463C45.915 28.7277 44.8552 29.1667 43.7502 29.1667H43.5627C42.8923 29.1694 42.2373 29.368 41.6784 29.7382C41.1194 30.1083 40.6809 30.6339 40.4168 31.25Z" stroke="black" stroke-width="2.6" stroke-linecap="round" stroke-linejoin="round"/>
</g>
<defs>
<clipPath id="clip0_2796_891">
<rect width="50" height="50" fill="white"/>
</clipPath>
</defs>
</svg>
