<svg width="183" height="37" viewBox="0 0 183 37" fill="none" xmlns="http://www.w3.org/2000/svg">
    <g clip-path="url(#clip0_1046_2366)">
        <path
            d="M24.9782 9.19619C23.9946 10.1791 23.1047 11.2561 22.3242 12.4106C20.4045 15.2465 19.1415 18.5545 18.7478 22.1228C18.7522 22.0912 18.7572 22.0608 18.7622 22.0311C18.7572 22.0615 18.7522 22.0924 18.7478 22.1228C18.7316 22.2616 18.7172 22.4011 18.7047 22.5411C18.6984 22.6446 18.6953 22.7481 18.6953 22.8528C18.6953 24.7064 19.6852 26.3307 21.1687 27.2342C21.2356 27.2751 21.3187 27.2175 21.3043 27.1406C21.0512 25.8194 20.9188 24.456 20.9188 23.061C20.9188 21.4312 21.1 19.8435 21.4424 18.3159C22.0167 15.7571 23.0454 13.3675 24.4408 11.2369C24.5402 11.0851 24.6408 10.9345 24.7445 10.7851C24.9926 10.334 25.1351 9.81653 25.1351 9.26622V9.2594C25.1351 9.17946 25.0351 9.1398 24.9782 9.19681V9.19619Z"
            fill="white" />
        <path
            d="M3.22688 10.4603C2.20014 10.4603 1.17965 10.4324 0.166033 10.3797C0.0341751 10.3729 -0.0451893 10.5241 0.0379246 10.6257C1.57272 12.5066 3.91991 13.7094 6.55018 13.7094C6.83639 13.7094 7.11823 13.6952 7.39694 13.6673C7.63816 13.6344 7.87876 13.5997 8.11872 13.5638C18.1149 12.0573 27.2637 7.99505 34.8677 2.06873C34.8683 2.06811 34.8689 2.06811 34.8695 2.06687C35.0245 1.94664 35.1782 1.82518 35.3314 1.70309H35.332C35.8238 1.26867 36.2306 0.741918 36.5268 0.150711C36.5756 0.0534162 36.4593 -0.0426394 36.3706 0.0199517C27.0075 6.59511 15.5721 10.4603 3.22688 10.4603Z"
            fill="white" />
        <path d="M38.0079 20.2367H29.3984V18.0764H49.6095V20.2367H41V36.037H38.0079V20.2367Z" fill="white" />
        <path
            d="M68.2985 27.3694C68.2985 29.3735 67.6686 30.1804 66.0938 30.1804H52.7862C52.9174 33.4339 54.7022 34.4229 60.792 34.4229C63.2329 34.4229 65.8844 34.2928 67.3542 34.1366L67.5642 35.8805C65.7269 36.1668 63.1023 36.349 60.6083 36.349C52.7862 36.349 49.8203 34.449 49.8203 29.2948C49.8203 24.792 53.2586 22.4749 59.8733 22.4749C65.4382 22.4749 68.2991 24.1406 68.2991 27.3687L68.2985 27.3694ZM65.5163 28.4105V27.1872C65.5163 25.3392 63.6528 24.4022 59.9252 24.4022C55.4108 24.4022 52.7593 25.8858 52.7593 28.4105H65.5157H65.5163Z"
            fill="white" />
        <path
            d="M71.3672 22.8392C74.1756 22.579 75.6454 22.4749 77.3258 22.4749C79.3992 22.4749 81.8139 22.631 83.2581 22.8392L82.8382 24.6612C81.4996 24.5311 79.7148 24.479 77.9826 24.479C76.749 24.479 75.6729 24.505 74.1768 24.5571V36.0361H71.3684V22.8392H71.3672Z"
            fill="white" />
        <path
            d="M111.683 29.2954C111.683 25.6255 110.45 24.5057 106.46 24.5057H101.788V36.0367H99.0058V29.2948C99.0058 25.4687 97.956 24.505 93.7821 24.505H89.1365V36.036H86.3281V22.8392C88.2966 22.657 91.5256 22.4749 93.5465 22.4749C96.3287 22.4749 98.2447 22.8132 99.4789 23.516H99.6364C100.896 22.8653 103.311 22.4749 106.277 22.4749C112.42 22.4749 114.467 24.1406 114.467 29.3208V36.0367H111.685V29.2948L111.683 29.2954Z"
            fill="white" />
        <path
            d="M117.75 19.065C117.75 17.9458 118.117 17.6074 119.482 17.6074C120.847 17.6074 121.162 17.9198 121.162 19.065C121.162 20.2102 120.795 20.5486 119.482 20.5486C118.17 20.5486 117.75 20.2102 117.75 19.065ZM118.039 36.0365H120.847V22.8136L118.039 22.9698V36.0365Z"
            fill="white" />
        <path
            d="M124.414 22.8392C126.54 22.657 130.294 22.4749 132.656 22.4749C139.875 22.4749 142.237 24.1406 142.237 29.3208V36.0367H139.428V29.2948C139.428 25.6509 137.932 24.505 132.997 24.505H127.222V36.036H124.414V22.8392Z"
            fill="white" />
        <path
            d="M163.627 35.9846C161.501 36.1929 157.747 36.349 155.359 36.349C148.167 36.349 145.805 34.7093 145.805 29.5811V22.8132H148.613V29.5811C148.613 33.225 150.109 34.3449 155.07 34.3449H160.819V22.8139H163.627V35.9846Z"
            fill="white" />
        <path
            d="M174.363 36.3492C172.158 36.3492 169.533 36.2711 167.066 36.0369V34.3971H175.859C179.507 34.3971 180.137 34.1629 180.137 32.7574C180.137 31.3519 179.56 31.0395 176.882 30.6231L171.922 29.8943C168.195 29.3217 166.672 28.1764 166.672 25.9641C166.672 23.3352 168.798 22.4763 175.098 22.4763C177.801 22.4763 181.24 22.6325 182.762 22.8147V24.4284H172.788C170.347 24.4284 169.56 24.8188 169.56 26.0161C169.56 27.2134 170.242 27.5778 172.525 27.9162L177.644 28.671C181.66 29.2436 182.999 30.2847 182.999 32.7574C182.999 35.5944 181.214 36.3492 174.363 36.3492H174.363Z"
            fill="white" />
    </g>
    <defs>
        <clipPath id="clip0_1046_2366">
            <rect width="183" height="36.3493" fill="white" />
        </clipPath>
    </defs>
</svg>